<svg width="8" height="9" viewBox="0 0 8 9" fill="none" xmlns="http://www.w3.org/2000/svg">
<path d="M7.29688 3.79688H4.70312V1.20312C4.70312 0.814797 4.38833 0.5 4 0.5C3.61167 0.5 3.29688 0.814797 3.29688 1.20312V3.79688H0.703125C0.314797 3.79688 0 4.11167 0 4.5C0 4.88833 0.314797 5.20312 0.703125 5.20312H3.29688V7.79688C3.29688 8.1852 3.61167 8.5 4 8.5C4.38833 8.5 4.70312 8.1852 4.70312 7.79688V5.20312H7.29688C7.6852 5.20312 8 4.88833 8 4.5C8 4.11167 7.6852 3.79688 7.29688 3.79688Z" fill="white"/>
</svg>
