<svg width="512" height="512" viewBox="0 0 512 512" fill="none" xmlns="http://www.w3.org/2000/svg">
<path d="M256 512C205.374 511.992 155.886 496.974 113.794 468.844C71.7024 440.714 38.8962 400.735 19.5233 353.962C0.150484 307.189 -4.91911 255.722 4.95551 206.068C14.8301 156.413 39.2055 110.802 75 75C110.802 39.2056 156.413 14.8302 206.067 4.95554C255.722 -4.91907 307.189 0.150515 353.962 19.5234C400.735 38.8962 440.714 71.7024 468.844 113.794C496.974 155.886 511.992 205.374 512 256C512 259.999 510.411 263.835 507.583 266.663C504.755 269.491 500.919 271.08 496.92 271.08C492.921 271.08 489.085 269.491 486.257 266.663C483.429 263.835 481.84 259.999 481.84 256C481.84 131.47 380.53 30.16 256 30.16C131.47 30.16 30.16 131.47 30.16 256C30.16 380.53 131.47 481.84 256 481.84C343 481.84 420.86 433.22 459.07 354.95C459.921 353.142 461.123 351.521 462.606 350.182C464.089 348.842 465.824 347.811 467.709 347.148C469.594 346.485 471.592 346.203 473.587 346.318C475.582 346.434 477.534 346.945 479.329 347.822C481.125 348.698 482.729 349.923 484.047 351.425C485.365 352.927 486.372 354.676 487.008 356.57C487.645 358.464 487.899 360.466 487.755 362.459C487.611 364.452 487.072 366.397 486.17 368.18C465.141 411.316 432.411 447.673 391.713 473.103C351.015 498.533 303.989 512.011 256 512Z" fill="#98A2B2"/>
<path d="M186.17 344.89V167.11C186.17 153.55 203.55 146.11 215.17 154.65L335.3 243.54C344 249.98 344 262.02 335.3 268.46L215.14 357.35C203.55 365.92 186.17 358.45 186.17 344.89Z" fill="#98A2B2"/>
</svg>
