<svg width="47" height="39" viewBox="0 0 47 39" fill="none" xmlns="http://www.w3.org/2000/svg">
<path d="M10.9194 27.0808C5.20149 27.0808 0.553345 22.4327 0.553345 16.7148C0.553345 10.9969 5.20149 6.34872 10.9194 6.34872C16.6373 6.34872 21.2854 10.9969 21.2854 16.7148C21.3223 22.4328 16.6742 27.0808 10.9194 27.0808Z" fill="#334053"/>
<path d="M26.8927 32.6512C18.076 32.6512 10.9563 25.4946 10.9563 16.7148C10.9563 7.89811 18.076 0.778381 26.8927 0.778381C35.6725 0.778381 42.8291 7.93497 42.8291 16.7148C42.8291 25.5314 35.6725 32.6512 26.8927 32.6512Z" fill="#334053"/>
<path d="M14.3133 6.9021C12.2105 9.59506 10.9194 13.0258 10.9194 16.7148C10.9194 20.4038 12.1737 23.8345 14.2764 26.5275C18.3343 25.1257 21.2854 21.2522 21.2854 16.7148C21.3223 12.1405 18.3711 8.30393 14.3133 6.9021Z" fill="#334053"/>
<path d="M14.3133 27.0808C14.1289 27.0808 13.9813 27.007 13.8706 26.8594C11.5835 23.9452 10.3661 20.4406 10.3661 16.7148C10.3661 12.9889 11.5835 9.48435 13.8706 6.5701C14.0182 6.38568 14.2764 6.31186 14.4977 6.38568C18.9245 7.8982 21.8757 12.0667 21.8757 16.7149C21.8757 21.3999 18.9245 25.5315 14.4977 27.044C14.4239 27.044 14.387 27.0808 14.3133 27.0808ZM14.4977 7.56613C12.5057 10.2222 11.4728 13.3947 11.4728 16.7148C11.4728 20.0348 12.5057 23.2074 14.4977 25.8634C18.2604 24.3879 20.7321 20.7726 20.7321 16.7148C20.769 12.6569 18.2604 9.00482 14.4977 7.56613Z" fill="white"/>
<path d="M26.8558 33.2045C22.4659 33.2045 18.2974 31.4707 15.1986 28.372C12.0998 25.2363 10.366 21.1047 10.366 16.7148C10.366 12.3249 12.063 8.15637 15.1986 5.0576C18.3342 1.95884 22.4659 0.225037 26.8558 0.225037C31.2457 0.225037 35.3773 1.92197 38.513 5.0576C41.6486 8.19323 43.3455 12.3249 43.3455 16.7148C43.3455 21.1416 41.6486 25.2732 38.513 28.372C35.4142 31.4707 31.2826 33.2045 26.8558 33.2045C26.8927 33.2045 26.8927 33.2045 26.8558 33.2045ZM26.8927 1.29489C22.761 1.29489 18.8876 2.88113 16.0102 5.79548C13.096 8.70973 11.5096 12.5832 11.5096 16.6779C11.5096 20.7726 13.0959 24.6461 16.0102 27.5604C18.9246 30.4746 22.798 32.061 26.8927 32.061C30.9874 32.061 34.8609 30.4747 37.7751 27.5604C40.6893 24.6461 42.2757 20.7726 42.2757 16.6779C42.2757 12.5832 40.6894 8.70973 37.7751 5.79548C34.8609 2.918 30.9874 1.29489 26.8927 1.29489Z" fill="white"/>
<path d="M10.9194 27.6342C9.99721 27.6342 9.11178 27.5235 8.22644 27.3022C7.93133 27.2284 7.74691 26.9333 7.82064 26.6382C7.89437 26.343 8.18958 26.1586 8.48469 26.2324C9.25933 26.4168 10.0709 26.5275 10.9194 26.5275C11.0301 26.5275 11.1408 26.5643 11.2145 26.6382C11.2883 26.5643 11.3989 26.5275 11.5096 26.5275C12.3212 26.4906 13.1327 26.343 13.9075 26.0848C14.2026 25.9741 14.4977 26.1586 14.6084 26.4537C14.7191 26.7488 14.5346 27.044 14.2395 27.1547C13.391 27.4129 12.4688 27.5973 11.5834 27.6711C11.4727 27.6711 11.3251 27.6343 11.2514 27.5973C11.1777 27.5973 11.067 27.6342 10.9194 27.6342ZM5.97615 26.3799C5.90232 26.3799 5.79173 26.343 5.7179 26.3061C4.9063 25.8634 4.16852 25.3469 3.50447 24.7198C3.28309 24.4985 3.28309 24.1665 3.46761 23.9452C3.68899 23.7238 4.02096 23.7238 4.24225 23.9083C4.83247 24.4617 5.49652 24.9412 6.2343 25.347C6.49254 25.4946 6.60323 25.8266 6.45568 26.0848C6.38195 26.2692 6.16057 26.3799 5.97615 26.3799ZM16.4529 26.0479C16.2685 26.0479 16.0839 25.9741 15.9734 25.7897C15.8258 25.5314 15.8995 25.1995 16.1578 25.015C16.8587 24.5724 17.4858 24.0559 18.0391 23.4657C18.2605 23.2443 18.5925 23.2443 18.8138 23.4657C19.0352 23.687 19.0352 24.019 18.8138 24.2403C18.1867 24.9044 17.4858 25.4577 16.711 25.9372C16.6373 26.0111 16.5266 26.0479 16.4529 26.0479ZM2.21343 22.9123C2.02901 22.9123 1.84449 22.8385 1.7339 22.6541C1.25437 21.8794 0.848566 21.0678 0.553455 20.2193C0.442764 19.9242 0.627281 19.6291 0.885431 19.5184C1.18054 19.4077 1.47565 19.5923 1.58634 19.8504C1.84459 20.6251 2.21343 21.3629 2.6561 22.0269C2.84052 22.2851 2.76679 22.6171 2.50854 22.8015C2.43472 22.8754 2.32402 22.9123 2.21343 22.9123ZM19.9574 22.359C19.8467 22.359 19.7729 22.3221 19.6991 22.2851C19.4409 22.1376 19.3302 21.8056 19.4777 21.5473C19.8835 20.8464 20.1786 20.0718 20.3999 19.2971C20.4738 19.0019 20.7689 18.8175 21.064 18.8912C21.3591 18.9651 21.5435 19.2602 21.4698 19.5553C21.2484 20.4406 20.8796 21.2891 20.4369 22.0638C20.3632 22.2483 20.1787 22.359 19.9574 22.359ZM0.590222 18.0429C0.295111 18.0429 0.0737292 17.8215 0.0368646 17.5264C0 17.2681 0 16.973 0 16.6779C0 16.0508 0.0368646 15.4236 0.147556 14.7966C0.18442 14.5014 0.479531 14.2801 0.774643 14.3539C1.06975 14.3908 1.29114 14.6859 1.21731 14.981C1.10662 15.5343 1.06975 16.0877 1.06975 16.641C1.06975 16.8993 1.06975 17.1575 1.10662 17.4157C1.14348 17.7108 0.885236 17.969 0.590125 18.0059C0.627087 18.0429 0.590222 18.0429 0.590222 18.0429ZM21.3223 17.4157C20.9903 17.4157 20.769 17.1574 20.769 16.8623V16.7148C20.769 15.9401 20.6952 15.2023 20.5107 14.4645C20.437 14.1694 20.6214 13.8743 20.9165 13.8004C21.2116 13.7266 21.5067 13.9111 21.5806 14.2062C21.765 15.0178 21.8757 15.8663 21.8757 16.7148V16.8992C21.8388 17.1944 21.6174 17.4157 21.3223 17.4157ZM1.47556 13.0258C1.40173 13.0258 1.328 13.0258 1.25417 12.9889C0.959063 12.8782 0.848372 12.5463 0.959063 12.2511C1.328 11.4395 1.80753 10.628 2.36089 9.92712C2.54531 9.70574 2.91425 9.63201 3.13553 9.8533C3.35691 10.0377 3.43064 10.4067 3.20936 10.6279C2.69287 11.255 2.28716 11.9559 1.95509 12.6938C1.88136 12.9152 1.66007 13.0258 1.47556 13.0258ZM20.1419 12.4356C19.9575 12.4356 19.7361 12.3249 19.6623 12.1405C19.2934 11.4027 18.8139 10.7386 18.2605 10.1484C18.0391 9.92703 18.0761 9.55819 18.2974 9.37377C18.5188 9.15238 18.8876 9.18935 19.072 9.41063C19.6622 10.0747 20.2156 10.8493 20.6214 11.6241C20.769 11.8823 20.6583 12.2143 20.4 12.3618C20.2894 12.4356 20.2156 12.4356 20.1419 12.4356ZM4.64815 9.00483C4.46373 9.00483 4.31617 8.931 4.20548 8.78345C4.02106 8.5252 4.05792 8.19322 4.31617 8.0088C5.05395 7.45545 5.82869 7.01278 6.6402 6.64384C6.93531 6.53315 7.23042 6.64384 7.37797 6.93895C7.48866 7.23406 7.37797 7.52918 7.08286 7.67673C6.34508 8.00871 5.64417 8.41451 4.98012 8.89414C4.86943 8.96796 4.75874 9.00483 4.64815 9.00483ZM16.7111 8.63599C16.6004 8.63599 16.4898 8.59912 16.416 8.5253C15.752 8.08263 15.0142 7.71369 14.2396 7.41858C13.9444 7.30789 13.7969 7.01278 13.9076 6.71767C14.0183 6.42256 14.3134 6.275 14.6085 6.38569C15.457 6.6808 16.2686 7.08661 17.0432 7.6031C17.3015 7.78752 17.3752 8.11959 17.1908 8.37774C17.08 8.56216 16.8956 8.63599 16.7111 8.63599ZM9.33316 7.01278C9.07491 7.01278 8.81667 6.82836 8.7798 6.53325C8.74294 6.23814 8.92736 5.94303 9.25933 5.90616C9.81269 5.83233 10.366 5.75861 10.9563 5.75861C11.3252 5.75861 11.6572 5.75861 11.9892 5.79547C12.2843 5.83233 12.5057 6.09058 12.5057 6.38569C12.4688 6.6808 12.2105 6.90219 11.9154 6.90219C11.6203 6.86532 11.3252 6.86532 10.9932 6.86532C10.4767 6.86532 9.96034 6.90219 9.48071 6.97601C9.37002 7.01278 9.37002 7.01278 9.33316 7.01278Z" fill="white"/>
<path d="M26.8927 17.2682H9.84955C9.55444 17.2682 9.2962 17.0099 9.2962 16.7148C9.2962 16.4197 9.55444 16.1614 9.84955 16.1614H26.8927C27.1878 16.1614 27.446 16.4197 27.446 16.7148C27.446 17.0099 27.1878 17.2682 26.8927 17.2682Z" fill="white"/>
<path d="M7.9682 17.2682H7.15659C6.86148 17.2682 6.60323 17.0099 6.60323 16.7148C6.60323 16.4197 6.86148 16.1614 7.15659 16.1614H7.9682C8.26331 16.1614 8.52155 16.4197 8.52155 16.7148C8.52155 17.0099 8.26331 17.2682 7.9682 17.2682Z" fill="white"/>
<path d="M5.12768 17.2682H4.31608C4.02097 17.2682 3.76272 17.0099 3.76272 16.7148C3.76272 16.4197 4.02097 16.1614 4.31608 16.1614H5.12768C5.42279 16.1614 5.68104 16.4197 5.68104 16.7148C5.68104 17.0099 5.42279 17.2682 5.12768 17.2682Z" fill="white"/>
<path d="M2.43471 17.2681C2.28716 17.2681 2.1396 17.1943 2.02891 17.1206C1.91822 17.0099 1.88136 16.8623 1.88136 16.7148C1.88136 16.5672 1.95518 16.4197 2.02891 16.309C2.25029 16.0876 2.61913 16.0876 2.80355 16.309C2.91424 16.4197 2.95111 16.5672 2.95111 16.7148C2.95111 16.8623 2.87728 17.0099 2.80355 17.1206C2.72982 17.1944 2.58227 17.2681 2.43471 17.2681Z" fill="white"/>
<path d="M45.9647 28.2613L28.6633 13.3209C28.3314 13.0258 27.8887 12.9889 27.4829 13.1733C27.114 13.3578 26.8558 13.7267 26.8558 14.1694L26.9296 37.1148C26.9296 37.5206 27.151 37.9264 27.5567 38.0739C27.9257 38.2584 28.3683 38.2215 28.7003 37.9633L36.2258 32.0978L45.559 30.2164C45.6328 30.1796 45.7065 30.1796 45.8172 30.1426C46.3706 29.8844 46.5919 29.2573 46.3337 28.7039C46.2598 28.5195 46.1122 28.372 45.9647 28.2613Z" fill="#334053"/>
<path d="M28.0362 38.7749C27.778 38.7749 27.5567 38.738 27.3353 38.6273C26.782 38.3691 26.4131 37.7788 26.4131 37.1518L26.3393 14.2063C26.3393 13.5792 26.7082 12.9889 27.2985 12.6938C27.8887 12.4356 28.5527 12.5094 29.0691 12.9521L46.3335 27.8924C46.5549 28.04 46.7393 28.2614 46.85 28.5195C47.2189 29.3311 46.8869 30.2902 46.0754 30.6591C46.0754 30.6591 46.0385 30.6591 46.0385 30.696C45.9278 30.7329 45.8171 30.7698 45.6696 30.8067L36.4471 32.6512L29.0323 38.4429C28.7371 38.6273 28.3682 38.7749 28.0362 38.7749ZM27.9625 13.6161C27.8887 13.6161 27.8149 13.6161 27.7411 13.653C27.5567 13.7268 27.4091 13.9481 27.4091 14.1325L27.4829 37.0779C27.4829 37.2993 27.5936 37.4837 27.778 37.5575C27.9624 37.6313 28.1838 37.6313 28.3313 37.4836L35.8569 31.6182C35.9307 31.5813 36.0044 31.5444 36.0783 31.5075L45.4114 29.6261C45.4483 29.6261 45.4852 29.6261 45.4852 29.5893H45.5221C45.7804 29.4786 45.891 29.1466 45.7804 28.8884C45.7435 28.8145 45.6697 28.7408 45.5959 28.667L45.5591 28.6301L28.2577 13.6897C28.2207 13.653 28.1101 13.6161 27.9625 13.6161Z" fill="white"/>
</svg>
