<svg width="512" height="422" viewBox="0 0 512 422" fill="none" xmlns="http://www.w3.org/2000/svg">
<path d="M271.059 278.765H436.706C445.023 278.765 451.765 285.507 451.765 293.824V339C451.765 347.317 445.023 354.059 436.706 354.059H271.059C262.742 354.059 256 347.317 256 339V293.824C256 285.507 262.742 278.765 271.059 278.765ZM173.176 173.353H323.764C332.081 173.353 338.823 180.095 338.823 188.412V233.588C338.823 241.905 332.081 248.647 323.764 248.647H173.176C164.859 248.647 158.117 241.905 158.117 233.588V188.412C158.118 180.095 164.86 173.353 173.176 173.353ZM75.294 67.941H195.765C204.082 67.941 210.824 74.683 210.824 83V128.176C210.824 136.493 204.082 143.235 195.765 143.235H75.294C66.977 143.235 60.235 136.493 60.235 128.176V83C60.235 74.683 66.977 67.941 75.294 67.941ZM22.588 421.824H7.529C3.371 421.824 0 418.453 0 414.295V7.70601C0 3.54701 3.371 0.177002 7.529 0.177002H22.588C26.746 0.177002 30.117 3.54801 30.117 7.70601V414.294C30.118 418.453 26.747 421.824 22.588 421.824ZM504.471 421.824H489.412C485.254 421.824 481.883 418.453 481.883 414.295V7.70601C481.883 3.54701 485.254 0.177002 489.412 0.177002H504.471C508.629 0.177002 512 3.54801 512 7.70601V414.294C512 418.453 508.629 421.824 504.471 421.824Z" fill="white"/>
</svg>
