<svg width="513" height="406" viewBox="0 0 513 406" fill="none" xmlns="http://www.w3.org/2000/svg">
<path d="M481.515 176.003L401.28 87.875C385.899 72.451 359.189 72.344 343.531 88.003C338.475 93.059 335.019 99.139 333.227 105.624C317.654 93.677 293.888 94.979 279.531 109.336C274.475 114.392 271.019 120.472 269.184 126.936C253.653 114.989 229.867 116.355 215.531 130.669C210.56 135.64 207.147 141.592 205.291 147.885L167.488 110.082C151.595 94.21 125.781 94.167 109.717 110.21C93.824 126.082 93.824 151.938 109.717 167.831L254.954 313.068L168.853 326.593C145.557 329.923 128 350.147 128 373.677C128 391.32 142.357 405.677 160 405.677H361.152C392.469 405.677 421.931 393.474 444.16 371.288L477.696 337.731C499.84 315.608 512.021 286.168 512.021 254.872C512.021 225.645 501.184 197.635 481.515 176.003Z" fill="#98A2B2"/>
<path d="M344.597 146.755H344.618C344.596 146.744 344.575 146.734 344.575 146.734C344.597 146.755 344.619 146.755 344.597 146.755Z" fill="#98A2B2"/>
<path d="M226.069 99.629C210.517 65.24 176.234 43.01 138.666 43.01C85.738 43.01 42.666 86.082 42.666 139.01C42.666 176.557 64.895 210.861 99.263 226.413C100.692 227.053 102.186 227.352 103.658 227.352C107.733 227.352 111.594 225.005 113.386 221.08C115.797 215.704 113.429 209.389 108.053 206.957C81.301 194.861 64 168.195 64 139.011C64 97.838 97.493 64.344 138.667 64.344C167.851 64.344 194.518 81.645 206.614 108.397C209.046 113.773 215.339 116.162 220.737 113.73C226.091 111.32 228.48 104.984 226.069 99.629Z" fill="#98A2B2"/>
<path d="M272.533 103.363C256.427 42.712 201.365 0.343994 138.667 0.343994C62.208 0.343994 0 62.552 0 139.011C0 201.71 42.368 256.771 103.04 272.878C103.957 273.134 104.875 273.241 105.771 273.241C110.507 273.241 114.816 270.105 116.075 265.326C117.59 259.63 114.219 253.785 108.502 252.27C57.195 238.638 21.334 192.067 21.334 139.011C21.334 74.307 73.985 21.678 138.667 21.678C191.702 21.678 238.294 57.518 251.926 108.846C253.419 114.521 259.073 117.934 264.982 116.419C270.656 114.904 274.027 109.059 272.533 103.363Z" fill="#98A2B2"/>
</svg>
